HIERARCHY
ROOT Hips
{
  OFFSET -301.059 68.6255 809.502
  CHANNELS 6 Xposition Yposition Zposition Zrotation Xrotation Yrotation
  JOINT Spine
  {
    OFFSET 0 8 0
    CHANNELS 6 Xposition Yposition Zposition Zrotation Xrotation Yrotation
    JOINT Spine1
    {
      OFFSET 0 8 0
      CHANNELS 6 Xposition Yposition Zposition Zrotation Xrotation Yrotation
      JOINT Spine2
      {
        OFFSET 0 8 -2.71911e-05
        CHANNELS 6 Xposition Yposition Zposition Zrotation Xrotation Yrotation
        JOINT Spine3
        {
          OFFSET 0 8 0
          CHANNELS 6 Xposition Yposition Zposition Zrotation Xrotation Yrotation
          JOINT Neck
          {
            OFFSET 0.000193406 17.0001 0.000190044
            CHANNELS 6 Xposition Yposition Zposition Zrotation Xrotation Yrotation
            JOINT Head
            {
              OFFSET 4.07198e-05 10.8 -5.68351e-05
              CHANNELS 6 Xposition Yposition Zposition Zrotation Xrotation Yrotation
              End Site
              {
                OFFSET 0 20.25 0
              }
            }
          }
          JOINT LeftShoulder
          {
            OFFSET 5.00021 17 0.000131281
            CHANNELS 6 Xposition Yposition Zposition Zrotation Xrotation Yrotation
            JOINT LeftShoulder2
            {
              OFFSET 6.45 0 0
              CHANNELS 6 Xposition Yposition Zposition Zrotation Xrotation Yrotation
              JOINT LeftArm
              {
                OFFSET 6.44998 -0.000130865 -0.000314712
                CHANNELS 6 Xposition Yposition Zposition Zrotation Xrotation Yrotation
                JOINT LeftForeArm
                {
                  OFFSET 0 -32.4 -1.99893
                  CHANNELS 6 Xposition Yposition Zposition Zrotation Xrotation Yrotation
                  JOINT LeftHand
                  {
                    OFFSET -1.47711e-05 -25.65 1.99999
                    CHANNELS 6 Xposition Yposition Zposition Zrotation Xrotation Yrotation
                    JOINT LeftHandThumb1
                    {
                      OFFSET -0.499985 -1.49996 2.65001
                      CHANNELS 6 Xposition Yposition Zposition Zrotation Xrotation Yrotation
                      JOINT LeftHandThumb2
                      {
                        OFFSET -1.7135e-05 -3.80003 3.70001
                        CHANNELS 6 Xposition Yposition Zposition Zrotation Xrotation Yrotation
                        JOINT LeftHandThumb3
                        {
                          OFFSET 1.05193e-05 -2.99998 2.69996
                          CHANNELS 6 Xposition Yposition Zposition Zrotation Xrotation Yrotation
                          End Site
                          {
                            OFFSET 0 -2.29999 1.8
                          }
                        }
                      }
                    }
                    JOINT LeftHandIndex
                    {
                      OFFSET 2.67538e-05 -1.90007 1.59998
                      CHANNELS 6 Xposition Yposition Zposition Zrotation Xrotation Yrotation
                      JOINT LeftHandIndex1
                      {
                        OFFSET 0 -8.29995 1.90001
                        CHANNELS 6 Xposition Yposition Zposition Zrotation Xrotation Yrotation
                        JOINT LeftHandIndex2
                        {
                          OFFSET 0 -4.49995 0
                          CHANNELS 6 Xposition Yposition Zposition Zrotation Xrotation Yrotation
                          JOINT LeftHandIndex3
                          {
                            OFFSET -1.90087e-05 -3.40004 0
                            CHANNELS 6 Xposition Yposition Zposition Zrotation Xrotation Yrotation
                            End Site
                            {
                              OFFSET -1.03158e-05 -2.59992 0
                            }
                          }
                        }
                      }
                    }
                    JOINT LeftHandMiddle
                    {
                      OFFSET -0.250001 -2.20003 0.399982
                      CHANNELS 6 Xposition Yposition Zposition Zrotation Xrotation Yrotation
                      JOINT LeftHandMiddle1
                      {
                        OFFSET -1.29981e-05 -8.29996 1.00001
                        CHANNELS 6 Xposition Yposition Zposition Zrotation Xrotation Yrotation
                        JOINT LeftHandMiddle2
                        {
                          OFFSET 0 -4.64998 0
                          CHANNELS 6 Xposition Yposition Zposition Zrotation Xrotation Yrotation
                          JOINT LeftHandMiddle3
                          {
                            OFFSET -2.87924e-05 -3.30003 1.43918e-05
                            CHANNELS 6 Xposition Yposition Zposition Zrotation Xrotation Yrotation
                            End Site
                            {
                              OFFSET -3.75178e-05 -2.69999 -2.06402e-05
                            }
                          }
                        }
                      }
                    }
                    JOINT LeftHandRing
                    {
                      OFFSET -0.500004 -2.15002 -0.799984
                      CHANNELS 6 Xposition Yposition Zposition Zrotation Xrotation Yrotation
                      JOINT LeftHandRing1
                      {
                        OFFSET -1.08836e-05 -7.75003 -0.200031
                        CHANNELS 6 Xposition Yposition Zposition Zrotation Xrotation Yrotation
                        JOINT LeftHandRing2
                        {
                          OFFSET -1.2874e-05 -3.80296 0
                          CHANNELS 6 Xposition Yposition Zposition Zrotation Xrotation Yrotation
                          JOINT LeftHandRing3
                          {
                            OFFSET -1.14996e-05 -3.4 0
                            CHANNELS 6 Xposition Yposition Zposition Zrotation Xrotation Yrotation
                            End Site
                            {
                              OFFSET -6.0128e-05 -2.60005 0
                            }
                          }
                        }
                      }
                    }
                    JOINT LeftHandPinky
                    {
                      OFFSET -0.750026 -1.75003 -1.85001
                      CHANNELS 6 Xposition Yposition Zposition Zrotation Xrotation Yrotation
                      JOINT LeftHandPinky1
                      {
                        OFFSET 0 -7.14996 -0.99999
                        CHANNELS 6 Xposition Yposition Zposition Zrotation Xrotation Yrotation
                        JOINT LeftHandPinky2
                        {
                          OFFSET 0 -3.00227 1.69748e-05
                          CHANNELS 6 Xposition Yposition Zposition Zrotation Xrotation Yrotation
                          JOINT LeftHandPinky3
                          {
                            OFFSET -1.87981e-05 -2.35 -2.46155e-05
                            CHANNELS 6 Xposition Yposition Zposition Zrotation Xrotation Yrotation
                            End Site
                            {
                              OFFSET 0 -2.10001 1.60799e-05
                            }
                          }
                        }
                      }
                    }
                  }
                }
              }
            }
          }
          JOINT RightShoulder
          {
            OFFSET -4.99981 17.0001 0.000223051
            CHANNELS 6 Xposition Yposition Zposition Zrotation Xrotation Yrotation
            JOINT RightShoulder2
            {
              OFFSET -6.45 0 0
              CHANNELS 6 Xposition Yposition Zposition Zrotation Xrotation Yrotation
              JOINT RightArm
              {
                OFFSET -6.44999 0.000271346 -0.000290053
                CHANNELS 6 Xposition Yposition Zposition Zrotation Xrotation Yrotation
                JOINT RightForeArm
                {
                  OFFSET -7.6919e-05 -32.4 -2
                  CHANNELS 6 Xposition Yposition Zposition Zrotation Xrotation Yrotation
                  JOINT RightHand
                  {
                    OFFSET 7.25852e-05 -25.65 2.00001
                    CHANNELS 6 Xposition Yposition Zposition Zrotation Xrotation Yrotation
                    JOINT RightHandThumb1
                    {
                      OFFSET 0.499989 -1.5 2.65
                      CHANNELS 6 Xposition Yposition Zposition Zrotation Xrotation Yrotation
                      JOINT RightHandThumb2
                      {
                        OFFSET 0 -3.80006 3.69999
                        CHANNELS 6 Xposition Yposition Zposition Zrotation Xrotation Yrotation
                        JOINT RightHandThumb3
                        {
                          OFFSET -3.70364e-05 -2.99998 2.70001
                          CHANNELS 6 Xposition Yposition Zposition Zrotation Xrotation Yrotation
                          End Site
                          {
                            OFFSET 0 -2.30001 1.8
                          }
                        }
                      }
                    }
                    JOINT RightHandIndex
                    {
                      OFFSET 4.76315e-05 -1.89994 1.59998
                      CHANNELS 6 Xposition Yposition Zposition Zrotation Xrotation Yrotation
                      JOINT RightHandIndex1
                      {
                        OFFSET -4.26374e-05 -8.30003 1.89997
                        CHANNELS 6 Xposition Yposition Zposition Zrotation Xrotation Yrotation
                        JOINT RightHandIndex2
                        {
                          OFFSET -3.02627e-05 -4.50002 7.14632e-05
                          CHANNELS 6 Xposition Yposition Zposition Zrotation Xrotation Yrotation
                          JOINT RightHandIndex3
                          {
                            OFFSET 4.97003e-05 -3.39999 -1.2256e-05
                            CHANNELS 6 Xposition Yposition Zposition Zrotation Xrotation Yrotation
                            End Site
                            {
                              OFFSET 0 -2.59999 -1.59383e-05
                            }
                          }
                        }
                      }
                    }
                    JOINT RightHandMiddle
                    {
                      OFFSET 0.249997 -2.20001 0.400043
                      CHANNELS 6 Xposition Yposition Zposition Zrotation Xrotation Yrotation
                      JOINT RightHandMiddle1
                      {
                        OFFSET 1.40684e-05 -8.29995 1.00001
                        CHANNELS 6 Xposition Yposition Zposition Zrotation Xrotation Yrotation
                        JOINT RightHandMiddle2
                        {
                          OFFSET -2.00482e-05 -4.64998 -8.36524e-05
                          CHANNELS 6 Xposition Yposition Zposition Zrotation Xrotation Yrotation
                          JOINT RightHandMiddle3
                          {
                            OFFSET 3.00087e-05 -3.3 1.80819e-05
                            CHANNELS 6 Xposition Yposition Zposition Zrotation Xrotation Yrotation
                            End Site
                            {
                              OFFSET -6.17851e-05 -2.69994 9.65635e-05
                            }
                          }
                        }
                      }
                    }
                    JOINT RightHandRing
                    {
                      OFFSET 0.499995 -2.14999 -0.800029
                      CHANNELS 6 Xposition Yposition Zposition Zrotation Xrotation Yrotation
                      JOINT RightHandRing1
                      {
                        OFFSET 3.06863e-05 -7.75005 -0.199989
                        CHANNELS 6 Xposition Yposition Zposition Zrotation Xrotation Yrotation
                        JOINT RightHandRing2
                        {
                          OFFSET 0 -3.79997 -3.50565e-05
                          CHANNELS 6 Xposition Yposition Zposition Zrotation Xrotation Yrotation
                          JOINT RightHandRing3
                          {
                            OFFSET -4.66927e-05 -3.39997 3.43555e-05
                            CHANNELS 6 Xposition Yposition Zposition Zrotation Xrotation Yrotation
                            End Site
                            {
                              OFFSET -1.72469e-05 -2.6 0
                            }
                          }
                        }
                      }
                    }
                    JOINT RightHandPinky
                    {
                      OFFSET 0.750018 -1.74992 -1.84999
                      CHANNELS 6 Xposition Yposition Zposition Zrotation Xrotation Yrotation
                      JOINT RightHandPinky1
                      {
                        OFFSET -1.61434e-05 -7.15004 -0.999953
                        CHANNELS 6 Xposition Yposition Zposition Zrotation Xrotation Yrotation
                        JOINT RightHandPinky2
                        {
                          OFFSET 0 -3.00001 3.55801e-05
                          CHANNELS 6 Xposition Yposition Zposition Zrotation Xrotation Yrotation
                          JOINT RightHandPinky3
                          {
                            OFFSET -1.49252e-05 -2.34999 -5.4005e-05
                            CHANNELS 6 Xposition Yposition Zposition Zrotation Xrotation Yrotation
                            End Site
                            {
                              OFFSET 0 -2.09995 5.55976e-05
                            }
                          }
                        }
                      }
                    }
                  }
                }
              }
            }
          }
        }
      }
    }
  }
  JOINT LeftUpLeg
  {
    OFFSET 7.99998 0 2.10674e-05
    CHANNELS 6 Xposition Yposition Zposition Zrotation Xrotation Yrotation
    JOINT LeftLeg
    {
      OFFSET 3.14437e-05 -45 -1.00004
      CHANNELS 6 Xposition Yposition Zposition Zrotation Xrotation Yrotation
      JOINT LeftFoot
      {
        OFFSET 1.03525e-05 -41 -2
        CHANNELS 6 Xposition Yposition Zposition Zrotation Xrotation Yrotation
        JOINT LeftToeBase
        {
          OFFSET 0 -7.5 12.5
          CHANNELS 6 Xposition Yposition Zposition Zrotation Xrotation Yrotation
          JOINT LeftFootToe
          {
            OFFSET 0 0 4
            CHANNELS 6 Xposition Yposition Zposition Zrotation Xrotation Yrotation
            End Site
            {
              OFFSET 0 0 0
            }
          }
        }
      }
    }
  }
  JOINT RightUpLeg
  {
    OFFSET -7.99998 0 -2.10674e-05
    CHANNELS 6 Xposition Yposition Zposition Zrotation Xrotation Yrotation
    JOINT RightLeg
    {
      OFFSET -1.59652e-05 -45 -0.999977
      CHANNELS 6 Xposition Yposition Zposition Zrotation Xrotation Yrotation
      JOINT RightFoot
      {
        OFFSET 0 -41 -2.00006
        CHANNELS 6 Xposition Yposition Zposition Zrotation Xrotation Yrotation
        JOINT RightToeBase
        {
          OFFSET 0 -7.50002 12.4999
          CHANNELS 6 Xposition Yposition Zposition Zrotation Xrotation Yrotation
          JOINT RightFootToe
          {
            OFFSET 0 0 4
            CHANNELS 6 Xposition Yposition Zposition Zrotation Xrotation Yrotation
            End Site
            {
              OFFSET 0 0 0
            }
          }
        }
      }
    }
  }
}
MOTION
Frames:	2
Frame Time:	0.0111111
-299.399 71.085 809.862 -13.3067 9.17664 -169.177 -1.54449e-05 8 3.39104e-06 16.4722 13.2488 -20.7594 3.05323e-06 8 -2.13291e-05 0.857426 11.6853 1.71003 7.34485e-06 8 3.403e-05 0.471554 5.85131 0.874811 -5.68434e-14 8 1.13687e-13 0.469115 5.82242 0.870305 -0.000172248 17 -0.00025595 -6.12203 3.56171 -0.601305 3.49616e-05 10.8 1.10897e-05 -14.3566 8.37056 -0.806756 4.9998 17 -0.000193509 -10.4302 0.438432 5.52662 6.45 0 1.13687e-13 -1.6934 0.441819 1.00447 6.45002 0.000119746 0.000350531 45.548 -13.8342 18.1147 -4.90135e-06 -32.4 -1.99695 -42.4424 -70.6867 -49.1086 -1.03261e-05 -25.65 2 1.37819 -13.7865 -30.9693 -0.499992 -1.49998 2.64999 28.7752 10.2081 11.9082 -4.13717e-07 -3.79998 3.70004 -0.170039 22.7072 -0.0622182 3.5402e-07 -3.00004 2.69995 0.0136252 5.56982 0.0308773 1.35361e-05 -1.90009 1.59998 3.60996e-06 -3.51471e-06 -4.13033e-06 6.88047e-06 -8.29995 1.9 -0.147817 3.27629 0.011312 -2.07565e-06 -4.49996 -5.41051e-06 -1.88893 0.0911633 -0.0844037 -4.28726e-05 -3.4239 2.15166e-05 8.69339e-06 0.0773765 0.0291789 -0.249993 -2.2 0.4 3.60996e-06 -3.51471e-06 -4.13033e-06 -1.49941e-05 -8.29998 0.999993 -8.64113 -5.80826 0.220994 -2.49054e-09 -4.64997 1.1277e-06 -6.41321e-05 0.124254 0.0539431 -2.56664e-05 -3.30004 1.15377e-05 -0.000136654 0.119652 0.0178124 -0.500014 -2.15006 -0.800018 3.60996e-06 -3.51471e-06 -4.13033e-06 -8.50461e-06 -7.75001 -0.199999 -1.96427 0.151771 0.234362 1.00437e-05 -3.84935 9.02652e-07 -1.35879 -0.0805971 0.119265 -1.27827e-05 -3.40003 1.35011e-05 -0.000236216 0.0845947 0.116366 -0.75002 -1.75003 -1.85001 3.60996e-06 -3.51471e-06 -4.13033e-06 -1.75934e-05 -7.15 -0.999996 -0.783236 7.60306 0.170649 1.19021e-05 -3.00609 8.67009e-07 -14.6442 -0.0159634 0.060747 -1.80488e-05 -2.35002 5.30195e-06 4.32922e-05 0.00023457 0.0604037 -5.0002 16.9999 -0.000337222 0.924403 1.70908 -1.10147 -6.45 0 1.13687e-13 -1.62344 -1.42774 -2.80881 -6.44999 0.000195905 -0.000384437 -52.8448 -57.874 -12.634 -7.16054e-05 -32.4 -1.99994 -76.9698 -44.6725 -72.6158 5.84589e-05 -25.65 1.99999 -19.3461 -6.50361 0.703161 0.499998 -1.50004 2.65002 6.38476 -14.3091 -7.61136 -5.89644e-05 -3.80006 3.70003 0.0574892 31.1112 -0.062389 -8.6633e-06 -3 2.69999 -0.572599 68.4208 -0.0473292 6.03382e-05 -1.89997 1.6 4.66028e-07 9.92357e-07 6.05414e-06 -6.11137e-05 -8.30001 1.89996 20.9012 -3.09577 0.409653 -3.22397e-05 -4.49998 4.85188e-05 68.4066 0.0659999 0.0227458 4.50079e-05 -3.39999 -1.6755e-05 50.106 0.0670858 0.120557 0.249969 -2.19998 0.400045 4.66028e-07 9.92357e-07 6.05414e-06 2.38203e-05 -8.29996 0.999989 23.4541 -3.66868 0.193964 -1.20684e-05 -4.65003 -2.47509e-05 80.7991 -0.0668208 0.0369274 3.49888e-05 -3.29996 -1.01941e-05 61.6795 -0.0370612 -0.133749 0.499994 -2.15003 -0.799997 4.66028e-07 9.92357e-07 6.05414e-06 3.32831e-05 -7.75001 -0.200036 38.752 3.80053 -3.00237 4.06856e-06 -3.8 1.66202e-05 59.0391 -0.198015 0.0544249 -2.5278e-05 -3.39995 -9.48401e-06 41.2658 0.0518995 -0.015025 0.750031 -1.74996 -1.84996 4.66028e-07 9.92357e-07 6.05414e-06 -3.73632e-05 -7.15 -0.999996 46.8756 8.73304 -6.53719 -5.09541e-06 -2.99998 2.36568e-05 22.7514 0.214659 0.132308 -1.51668e-05 -2.35003 -1.12032e-05 17.6538 0.25266 0.0534737 8.00001 7.23545e-08 -1.02509e-05 6.20433 -55.234 5.67952 6.78584e-06 -45 -1.00005 -29.0954 74.5286 29.4599 4.7885e-06 -41 -2.00001 6.93765 0.904165 -26.3354 -1.91192e-05 -7.5 12.5 4.72957e-07 -4.36903 -2.84311e-06 0 0 4 -12.6864 -4.71251 60.5322 -8.00001 -7.23545e-08 1.02509e-05 9.65439 -54.3427 21.6313 8.32895e-06 -45 -1.00001 -12.3899 78.6738 5.89584 -5.4844e-06 -41 -2.00006 11.3316 7.89442 -23.5366 2.94971e-05 -7.5 12.5 0.000134213 -20.3372 0.00229589 0 4.44089e-16 4 -1.19255 25.7299 44.1347 
-299.396 71.1061 809.782 -13.2285 9.08199 -169.156 -1.54449e-05 8 3.39104e-06 16.5921 13.2893 -20.7685 3.05323e-06 8 -2.13291e-05 0.839306 11.6836 1.69167 7.34485e-06 8 3.403e-05 0.462042 5.85055 0.86518 -5.68434e-14 8 1.13687e-13 0.459062 5.82226 0.861321 -0.000172248 17 -0.00025595 -6.15423 3.43453 -0.596387 3.49616e-05 10.8 1.10897e-05 -14.4291 8.07439 -0.814816 4.9998 17 -0.000193509 -10.4722 0.393764 5.45727 6.45 0 0 -1.69801 0.437472 1.00441 6.45002 0.000119746 0.000350531 45.6839 -13.8331 18.1778 -4.90135e-06 -32.4 -1.99695 -42.476 -70.8115 -49.0938 -1.03261e-05 -25.65 2 1.36686 -13.6807 -30.9456 -0.499992 -1.49998 2.64999 28.8186 10.1881 11.9722 -4.13717e-07 -3.79998 3.70004 -0.170187 22.7009 -0.0624928 3.5402e-07 -3.00004 2.69995 0.0151223 5.52481 0.0313029 1.35361e-05 -1.90009 1.59998 3.60996e-06 -3.51471e-06 -4.13033e-06 6.88047e-06 -8.29995 1.9 -0.153063 3.33533 0.0115051 -2.07565e-06 -4.49996 -5.41051e-06 -1.88915 0.0922345 -0.0854062 -4.28726e-05 -3.4239 2.15166e-05 7.40554e-06 0.0782825 0.0295254 -0.249993 -2.2 0.4 3.60996e-06 -3.51471e-06 -4.13033e-06 -1.49941e-05 -8.29998 0.999993 -8.62194 -5.77208 0.223038 -2.49048e-09 -4.64997 1.1277e-06 -6.18779e-05 0.124814 0.0525531 -2.56664e-05 -3.30004 1.15377e-05 -0.00013657 0.1202 0.0181382 -0.500014 -2.15006 -0.800018 3.60996e-06 -3.51471e-06 -4.13033e-06 -8.50461e-06 -7.75001 -0.199999 -1.96063 0.148463 0.234552 1.00437e-05 -3.84935 9.02652e-07 -1.35879 -0.0798623 0.120321 -1.27827e-05 -3.40003 1.35011e-05 -0.000239589 0.0855761 0.117358 -0.75002 -1.75003 -1.85001 3.60996e-06 -3.51471e-06 -4.13033e-06 -1.75934e-05 -7.15 -0.999996 -0.775344 7.56411 0.170627 1.19021e-05 -3.00609 8.67009e-07 -14.6443 -0.0161982 0.0616407 -1.80488e-05 -2.35002 5.30195e-06 4.32193e-05 0.000234981 0.0612996 -5.0002 16.9999 -0.000337222 0.943794 1.67937 -1.09815 -6.45 -5.68434e-14 -1.13687e-13 -1.62345 -1.42375 -2.81887 -6.44999 0.000195905 -0.000384437 -52.9838 -57.9356 -12.7659 -7.16054e-05 -32.4 -1.99994 -77.0453 -44.6554 -72.689 5.84589e-05 -25.65 1.99999 -19.3541 -6.48981 0.682946 0.499998 -1.50004 2.65002 6.389 -14.3305 -7.6181 -5.89644e-05 -3.80006 3.70003 0.0573298 31.1172 -0.0626212 -8.6633e-06 -3 2.69999 -0.572736 68.4194 -0.0472076 6.03382e-05 -1.89997 1.6 4.66028e-07 9.92357e-07 6.05414e-06 -6.11137e-05 -8.30001 1.89996 20.8975 -3.10252 0.409521 -3.22397e-05 -4.49998 4.85188e-05 68.3984 0.0667148 0.0232879 4.50079e-05 -3.39999 -1.6755e-05 50.0971 0.0677664 0.121108 0.249969 -2.19998 0.400045 4.66028e-07 9.92357e-07 6.05414e-06 2.38203e-05 -8.29996 0.999989 23.453 -3.67687 0.194029 -1.20684e-05 -4.65003 -2.47509e-05 80.7874 -0.065137 0.0370909 3.49888e-05 -3.29996 -1.01941e-05 61.6614 -0.0356133 -0.134022 0.499994 -2.15003 -0.799997 4.66028e-07 9.92357e-07 6.05414e-06 3.32831e-05 -7.75001 -0.200036 38.7617 3.79731 -3.0023 4.06856e-06 -3.8 1.66202e-05 58.9753 -0.19673 0.0553423 -2.5278e-05 -3.39995 -9.48401e-06 41.2132 0.0534199 -0.0151392 0.750031 -1.74996 -1.84996 4.66028e-07 9.92357e-07 6.05414e-06 -3.73632e-05 -7.15 -0.999996 46.8735 8.72635 -6.53708 -5.09541e-06 -2.99998 2.36568e-05 22.7188 0.214669 0.132602 -1.51668e-05 -2.35003 -1.12032e-05 17.6332 0.252548 0.054311 8.00001 7.23545e-08 -1.02509e-05 6.24195 -55.2973 5.62928 6.78584e-06 -45 -1.00005 -29.1831 74.5564 29.5539 4.7885e-06 -41 -2.00001 6.91376 0.822194 -26.3478 -1.91192e-05 -7.5 12.5 4.68865e-07 -4.45125 -2.84343e-06 0 0 4 -12.7037 -4.63427 60.5465 -8.00001 -7.23545e-08 1.02509e-05 9.68044 -54.3946 21.5587 8.32895e-06 -45 -1.00001 -12.4319 78.7057 5.93965 -5.4844e-06 -41 -2.00006 11.3136 7.81179 -23.5586 2.94971e-05 -7.5 12.5 0.000134818 -20.3513 0.0022961 -8.52651e-14 -2.22045e-16 4 -1.20763 25.7306 44.1482 
